<svg width="44" height="45" viewBox="0 0 44 45" fill="none" xmlns="http://www.w3.org/2000/svg">
<path d="M34.5567 19.6644C27.5577 15.4182 16.013 15.0278 9.33163 17.0994C8.25866 17.4318 7.1241 16.8131 6.79899 15.717C6.47388 14.6204 7.07894 13.4621 8.15261 13.1289C15.8224 10.7503 28.5722 11.2099 36.6296 16.0961C37.5949 16.6812 37.9115 17.9544 37.3392 18.9389C36.7668 19.9247 35.5194 20.2497 34.5567 19.6644ZM34.3274 25.9536C33.8366 26.7677 32.7948 27.0228 31.9991 26.5232C26.164 22.859 17.2663 21.7976 10.363 23.9382C9.46775 24.2146 8.52219 23.699 8.25036 22.7861C7.98053 21.8715 8.48553 20.9073 9.37913 20.6292C17.2653 18.1846 27.0687 19.3687 33.7705 23.5761C34.5662 24.0767 34.8167 25.1416 34.3274 25.9536ZM31.6706 31.9936C31.2807 32.6472 30.4473 32.8521 29.81 32.4538C24.7111 29.2703 18.2935 28.5511 10.7355 30.3149C10.0071 30.4855 9.28128 30.0191 9.11508 29.2752C8.94829 28.5312 9.40293 27.7899 10.133 27.6201C18.4039 25.6884 25.4987 26.5198 31.2218 30.0924C31.8599 30.4905 32.0608 31.3421 31.6706 31.9936ZM21.7129 3.8147e-06C9.72146 3.8147e-06 0 9.93077 0 22.1812C0 34.4327 9.72146 44.3632 21.7129 44.3632C33.7049 44.3632 43.4258 34.4327 43.4258 22.1812C43.4258 9.93077 33.7049 3.8147e-06 21.7129 3.8147e-06Z" fill="#1ED760"/>
</svg>
